Results
version=1
nRows=27
nColumns=17
inDegrees=yes
endheader
time	/jointset/r_shoulder/r_shoulder_elev/value	/jointset/r_shoulder/r_shoulder_elev/speed	/jointset/r_elbow/r_elbow_flex/value	/jointset/r_elbow/r_elbow_flex/speed	/forceset/TRIlong/activation	/forceset/TRIlong/fiber_length	/forceset/TRIlat/activation	/forceset/TRIlat/fiber_length	/forceset/TRImed/activation	/forceset/TRImed/fiber_length	/forceset/BIClong/activation	/forceset/BIClong/fiber_length	/forceset/BICshort/activation	/forceset/BICshort/fiber_length	/forceset/BRA/activation	/forceset/BRA/fiber_length
      0.49257115	      3.26035499	      1.80689747	    -43.44435721	   -145.57019370	     -0.03797644	      0.14116428	     -0.03797644	      0.07292314	     -0.03797644	      0.06795763	     -0.03797644	      0.14498722	     -0.03797644	      0.14515648	     -0.03797644	      0.07994701
      0.49440219	      3.26308051	      1.17007971	    -43.70805374	   -142.45633149	     -0.03821218	      0.14126545	     -0.03821218	      0.07302368	     -0.03821218	      0.06806453	     -0.03821218	      0.14491583	     -0.03821218	      0.14508263	     -0.03821218	      0.07985673
      0.49583437	      3.26440339	      0.67779915	    -43.91033897	   -140.02918197	     -0.03839658	      0.14134282	     -0.03839658	      0.07310102	     -0.03839658	      0.06813572	     -0.03839658	      0.14486085	     -0.03839658	      0.14502553	     -0.03839658	      0.07978748
      0.49726655	      3.26502254	      0.18739676	    -44.10914615	   -137.59949360	     -0.03858097	      0.14141862	     -0.03858097	      0.07317720	     -0.03858097	      0.06821228	     -0.03858097	      0.14480665	     -0.03858097	      0.14496902	     -0.03858097	      0.07971942
      0.49984611	      3.26437595	     -0.68595070	    -44.45845456	   -133.23246028	     -0.03891309	      0.14155112	     -0.03891309	      0.07331130	     -0.03891309	      0.06834419	     -0.03891309	      0.14471111	     -0.03891309	      0.14486882	     -0.03891309	      0.07959985
      0.50161608	      3.26263621	     -1.27913422	    -44.69162239	   -130.23873463	     -0.03914097	      0.14163917	     -0.03914097	      0.07340153	     -0.03914097	      0.06843652	     -0.03914097	      0.14464703	     -0.03914097	      0.14480128	     -0.03914097	      0.07952004
      0.50338605	      3.25985273	     -1.86484664	    -44.91949869	   -127.25473541	     -0.03936885	      0.14172476	     -0.03936885	      0.07348962	     -0.03936885	      0.06852222	     -0.03936885	      0.14458426	     -0.03936885	      0.14473477	     -0.03936885	      0.07944204
      0.50515602	      3.25603785	     -2.44474654	    -45.14209794	   -124.27531860	     -0.03959674	      0.14180792	     -0.03959674	      0.07357598	     -0.03959674	      0.06860904	     -0.03959674	      0.14452282	     -0.03959674	      0.14466932	     -0.03959674	      0.07936584
      0.50784733	      3.24828617	     -3.31222405	    -45.47048166	   -119.76313424	     -0.03994324	      0.14192969	     -0.03994324	      0.07370366	     -0.03994324	      0.06873419	     -0.03994324	      0.14443201	     -0.03994324	      0.14457190	     -0.03994324	      0.07925342
      0.50979885	      3.24121638	     -3.93188279	    -45.70101703	   -116.50054110	     -0.04019450	      0.14201452	     -0.04019450	      0.07379379	     -0.04019450	      0.06882643	     -0.04019450	      0.14436808	     -0.04019450	      0.14450289	     -0.04019450	      0.07917449
      0.51175037	      3.23294722	     -4.54097643	    -45.92519960	   -113.25378894	     -0.04044576	      0.14209639	     -0.04044576	      0.07388152	     -0.04044576	      0.06891215	     -0.04044576	      0.14430588	     -0.04044576	      0.14443529	     -0.04044576	      0.07909772
      0.51409817	      3.22143737	     -5.26145479	    -46.18652693	   -109.36339084	     -0.04074804	      0.14219098	     -0.04074804	      0.07398408	     -0.04074804	      0.06901504	     -0.04074804	      0.14423336	     -0.04074804	      0.14435588	     -0.04074804	      0.07900821
      0.51671270	      3.20665152	     -6.04548870	    -46.46682529	   -105.05858181	     -0.04108466	      0.14229133	     -0.04108466	      0.07409445	     -0.04108466	      0.06912351	     -0.04108466	      0.14415558	     -0.04108466	      0.14426997	     -0.04108466	      0.07891217
      0.51932723	      3.18984083	     -6.81090732	    -46.73590584	   -100.78058908	     -0.04142128	      0.14238645	     -0.04142128	      0.07420076	     -0.04142128	      0.06923107	     -0.04142128	      0.14408100	     -0.04142128	      0.14418680	     -0.04142128	      0.07881993
      0.52194176	      3.17105627	     -7.55451220	    -46.99384554	    -96.53904531	     -0.04175790	      0.14247638	     -0.04175790	      0.07430299	     -0.04175790	      0.06933072	     -0.04175790	      0.14400966	     -0.04175790	      0.14410641	     -0.04175790	      0.07873146
      0.52455628	      3.15035483	     -8.27765100	    -47.24073930	    -92.32965655	     -0.04209452	      0.14256117	     -0.04209452	      0.07440115	     -0.04209452	      0.06942979	     -0.04209452	      0.14394160	     -0.04209452	      0.14402887	     -0.04209452	      0.07864672
      0.52717081	      3.12779276	     -8.97733983	    -47.47667951	    -88.16146821	     -0.04243114	      0.14264087	     -0.04243114	      0.07449525	     -0.04243114	      0.06952240	     -0.04243114	      0.14387684	     -0.04243114	      0.14395423	     -0.04243114	      0.07856568
      0.52978534	      3.10343162	     -9.65381754	    -47.70177444	    -84.03364230	     -0.04276776	      0.14271553	     -0.04276776	      0.07458532	     -0.04276776	      0.06961226	     -0.04276776	      0.14381541	     -0.04276776	      0.14388252	     -0.04276776	      0.07848829
      0.53331437	      3.06780774	    -10.52723885	    -47.98860239	    -78.53465227	     -0.04322213	      0.14280843	     -0.04322213	      0.07470048	     -0.04322213	      0.06972644	     -0.04322213	      0.14373783	     -0.04322213	      0.14379046	     -0.04322213	      0.07838955
      0.53684341	      3.02918428	    -11.35354593	    -48.25617858	    -73.12381668	     -0.04367649	      0.14289250	     -0.04367649	      0.07480846	     -0.04367649	      0.06983399	     -0.04367649	      0.14366630	     -0.04367649	      0.14370388	     -0.04367649	      0.07829729
      0.54039741	      2.98742937	    -12.13498412	    -48.50652208	    -67.77324694	     -0.04413407	      0.14296842	     -0.04413407	      0.07490994	     -0.04413407	      0.06993452	     -0.04413407	      0.14360043	     -0.04413407	      0.14362227	     -0.04413407	      0.07821079
      0.54395142	      2.94299069	    -12.86348454	    -48.73803474	    -62.52789525	     -0.04459165	      0.14303581	     -0.04459165	      0.07500429	     -0.04459165	      0.07002829	     -0.04459165	      0.14354070	     -0.04459165	      0.14354630	     -0.04459165	      0.07813061
      0.54836236	      2.88439510	    -13.68985314	    -48.99976618	    -56.17707495	     -0.04515955	      0.14310797	     -0.04515955	      0.07511161	     -0.04515955	      0.07013470	     -0.04515955	      0.14347505	     -0.04515955	      0.14345985	     -0.04515955	      0.07803967
      0.55277330	      2.82235150	    -14.42620360	    -49.23389598	    -50.01497365	     -0.04572746	      0.14316792	     -0.04572746	      0.07520842	     -0.04572746	      0.07023074	     -0.04572746	      0.14341857	     -0.04572746	      0.14338204	     -0.04572746	      0.07795797
      0.55718424	      2.75726726	    -15.06783768	    -49.44128936	    -44.05654520	     -0.04629537	      0.14321622	     -0.04629537	      0.07529499	     -0.04629537	      0.07031649	     -0.04629537	      0.14337109	     -0.04629537	      0.14331277	     -0.04629537	      0.07788521
      0.56159518	      2.68956944	    -15.61060703	    -49.62287471	    -38.31527939	     -0.04686328	      0.14325350	     -0.04686328	      0.07537167	     -0.04686328	      0.07039237	     -0.04686328	      0.14333235	     -0.04686328	      0.14325192	     -0.04686328	      0.07782109
      0.56600612	      2.61970295	    -16.05056049	    -49.77963906	    -32.80426134	     -0.04743119	      0.14328037	     -0.04743119	      0.07543881	     -0.04743119	      0.07045875	     -0.04743119	      0.14330204	     -0.04743119	      0.14319929	     -0.04743119	      0.07776528
